<?xml version="1.0" encoding="UTF-8"?>
<!DOCTYPE svg PUBLIC "-//W3C//DTD SVG 1.1//EN" "http://www.w3.org/Graphics/SVG/1.1/DTD/svg11.dtd">
<svg xmlns="http://www.w3.org/2000/svg" version="1.1" width="200px" height="200px" style="shape-rendering:geometricPrecision; text-rendering:geometricPrecision; image-rendering:optimizeQuality; fill-rule:evenodd; clip-rule:evenodd" xmlns:xlink="http://www.w3.org/1999/xlink">
<g><path style="opacity:0.77" fill="#000000" d="M 98.5,10.5 C 129.551,16.9102 160.551,23.5769 191.5,30.5C 191.784,33.7766 191.451,36.9433 190.5,40C 184.859,41.936 179.192,43.7693 173.5,45.5C 172.744,49.6621 172.077,53.8287 171.5,58C 171.645,58.772 171.978,59.4387 172.5,60C 178.759,61.9747 184.925,64.1414 191,66.5C 191.667,69.5 191.667,72.5 191,75.5C 184.912,78.7943 178.745,81.961 172.5,85C 171.167,87 171.167,89 172.5,91C 178.768,93.6435 184.935,96.4769 191,99.5C 191.703,102.713 191.536,105.879 190.5,109C 183.685,113.807 176.852,118.641 170,123.5C 169.667,129.833 169.333,136.167 169,142.5C 168.626,143.416 168.126,144.25 167.5,145C 164.901,145.769 162.401,145.602 160,144.5C 159.828,139.798 159.328,135.132 158.5,130.5C 152.58,134.376 146.746,138.376 141,142.5C 139.936,149.458 139.269,156.458 139,163.5C 136,166.167 133,166.167 130,163.5C 129.603,158.564 129.436,153.897 129.5,149.5C 121.663,154.251 113.996,159.251 106.5,164.5C 105.668,172.813 105.168,181.147 105,189.5C 102.503,191.478 99.6693,191.978 96.5,191C 95.682,182.578 95.182,174.078 95,165.5C 87.4933,160.747 80.16,155.747 73,150.5C 72.2618,154.71 72.4285,158.876 73.5,163C 72.0155,167.911 69.0155,169.244 64.5,167C 63.1603,159.606 62.327,152.106 62,144.5C 55,139.833 48,135.167 41,130.5C 41.5317,134.757 41.5317,139.091 41,143.5C 38,147.5 35,147.5 32,143.5C 31.9935,136.685 31.1602,130.018 29.5,123.5C 22.864,119.363 16.364,115.029 10,110.5C 9.17638,107.118 9.34305,103.784 10.5,100.5C 16.5,97.8333 22.5,95.1667 28.5,92.5C 29.8333,90.5 29.8333,88.5 28.5,86.5C 22.6209,83.3936 16.6209,80.5603 10.5,78C 8.83854,74.3916 8.50521,70.7249 9.5,67C 15.4619,64.7349 21.4619,62.5682 27.5,60.5C 28.6616,55.8687 28.8283,51.202 28,46.5C 21.9253,44.1414 15.7587,41.9747 9.5,40C 7.90894,36.7249 8.24227,33.7249 10.5,31C 40.0348,24.4638 69.3681,17.6305 98.5,10.5 Z M 98.5,15.5 C 125.884,21.0103 153.217,26.8436 180.5,33C 153.864,41.3778 127.197,49.8778 100.5,58.5C 74.2025,50.2343 47.8691,42.0676 21.5,34C 47.1853,27.6614 72.852,21.4948 98.5,15.5 Z M 154.5,45.5 C 155.239,45.369 155.906,45.5357 156.5,46C 155.167,47.3333 155.167,48.6667 156.5,50C 158.488,50.1805 160.488,50.0138 162.5,49.5C 162.808,51.924 162.474,54.2573 161.5,56.5C 158.204,55.2347 154.871,54.0681 151.5,53C 152.38,51.6439 152.714,50.1439 152.5,48.5C 151.127,48.6567 149.793,48.49 148.5,48C 150.723,47.4338 152.723,46.6005 154.5,45.5 Z M 38.5,49.5 C 42.1796,50.5596 45.8463,51.7262 49.5,53C 45.8347,54.2778 42.168,55.4445 38.5,56.5C 38.5,54.1667 38.5,51.8333 38.5,49.5 Z M 143.5,54.5 C 149.433,56.6999 155.433,58.6999 161.5,60.5C 161.234,64.5705 161.567,68.5705 162.5,72.5C 165.167,73.8333 167.833,73.8333 170.5,72.5C 171.074,69.8233 171.741,67.1566 172.5,64.5C 175.923,65.6402 179.256,66.9735 182.5,68.5C 155.337,82.4982 127.837,95.8315 100,108.5C 72.2931,95.7119 44.7931,82.5452 17.5,69C 20.871,67.9319 24.2043,66.7653 27.5,65.5C 28.1919,68.1451 29.1919,70.6451 30.5,73C 32.8333,73.6667 35.1667,73.6667 37.5,73C 38.1363,69.2104 38.803,65.3771 39.5,61.5C 45.7097,58.9264 52.0431,57.0931 58.5,56C 59.8494,65.0664 60.6827,74.2331 61,83.5C 64,86.1667 67,86.1667 70,83.5C 69.8295,75.4759 69.9962,67.4759 70.5,59.5C 78.7231,62.5746 87.0565,65.2413 95.5,67.5C 95.3335,78.1719 95.5002,88.8385 96,99.5C 99.24,101.036 102.24,100.703 105,98.5C 105.168,88.1506 105.668,77.8173 106.5,67.5C 115.054,64.5934 123.554,61.5934 132,58.5C 132.522,66.2058 132.522,73.8725 132,81.5C 134.497,83.4782 137.331,83.9782 140.5,83C 142.028,73.5592 143.028,64.0592 143.5,54.5 Z M 24.5,78.5 C 20.9734,77.7397 17.64,76.4064 14.5,74.5C 13.479,73.9984 13.3123,73.3317 14,72.5C 17.6441,74.4007 21.1441,76.4007 24.5,78.5 Z M 28.5,80.5 C 52.0732,90.9528 75.4065,101.953 98.5,113.5C 98.1667,113.833 97.8333,114.167 97.5,114.5C 74.2853,103.392 51.2853,92.0587 28.5,80.5 Z M 160.5,85.5 C 157.389,87.5591 154.056,89.3924 150.5,91C 149.07,92.8803 149.404,94.3803 151.5,95.5C 154.64,93.5936 157.973,92.2603 161.5,91.5C 161.63,95.8682 161.297,100.202 160.5,104.5C 161.677,110.568 164.844,111.902 170,108.5C 170.421,104.128 171.088,99.7946 172,95.5C 176.088,97.7942 180.255,99.9609 184.5,102C 165.248,113.447 146.581,125.614 128.5,138.5C 128.453,140 129.119,141 130.5,141.5C 136.057,137.891 141.724,134.558 147.5,131.5C 132.819,141.601 117.985,151.601 103,161.5C 102.251,160.365 102.417,159.365 103.5,158.5C 111.405,154.249 118.738,149.249 125.5,143.5C 123.824,141.079 121.824,140.912 119.5,143C 113.167,146.833 106.833,150.667 100.5,154.5C 72.368,137.532 44.368,120.365 16.5,103C 20.3806,100.893 24.3806,99.0595 28.5,97.5C 29.1527,101.235 29.9861,104.901 31,108.5C 33.6667,111.167 36.3333,111.167 39,108.5C 39.3333,102.833 39.6667,97.1667 40,91.5C 46.4218,94.961 52.9218,98.2944 59.5,101.5C 61.093,109.061 61.9263,116.728 62,124.5C 65,127.167 68,127.167 71,124.5C 71.2399,118.486 71.2399,112.486 71,106.5C 78.7552,110.628 86.5886,114.628 94.5,118.5C 95.332,127.482 95.832,136.482 96,145.5C 99.4192,148.39 102.419,148.057 105,144.5C 105.333,135.833 105.667,127.167 106,118.5C 114.333,114.167 122.667,109.833 131,105.5C 131.333,111.167 131.667,116.833 132,122.5C 135.339,125.299 138.339,124.966 141,121.5C 141.333,114.5 141.667,107.5 142,100.5C 143.481,99.5291 144.315,98.1958 144.5,96.5C 143.262,95.5876 141.928,95.4209 140.5,96C 128.046,102.31 115.546,108.477 103,114.5C 102.312,113.668 102.479,113.002 103.5,112.5C 122.412,103.21 141.412,94.2098 160.5,85.5 Z M 175.5,113.5 C 175.027,114.906 174.027,115.573 172.5,115.5C 172.973,114.094 173.973,113.427 175.5,113.5 Z M 25.5,114.5 C 27.0269,114.427 28.0269,115.094 28.5,116.5C 26.9731,116.573 25.9731,115.906 25.5,114.5 Z M 28.5,116.5 C 30.0269,116.427 31.0269,117.094 31.5,118.5C 29.9731,118.573 28.9731,117.906 28.5,116.5 Z M 33.5,119.5 C 35.0269,119.427 36.0269,120.094 36.5,121.5C 34.9731,121.573 33.9731,120.906 33.5,119.5 Z M 164.5,120.5 C 164.027,121.906 163.027,122.573 161.5,122.5C 161.973,121.094 162.973,120.427 164.5,120.5 Z M 36.5,121.5 C 38.0269,121.427 39.0269,122.094 39.5,123.5C 37.9731,123.573 36.9731,122.906 36.5,121.5 Z M 161.5,122.5 C 161.027,123.906 160.027,124.573 158.5,124.5C 158.973,123.094 159.973,122.427 161.5,122.5 Z M 39.5,123.5 C 41.674,123.75 43.3406,124.75 44.5,126.5C 42.326,126.25 40.6594,125.25 39.5,123.5 Z M 158.5,124.5 C 156.371,126.95 153.704,128.617 150.5,129.5C 152.629,127.05 155.296,125.383 158.5,124.5 Z M 44.5,126.5 C 46.0269,126.427 47.0269,127.094 47.5,128.5C 45.9731,128.573 44.9731,127.906 44.5,126.5 Z M 47.5,128.5 C 64.6949,138.185 81.5282,148.518 98,159.5C 98.6667,160.167 98.6667,160.833 98,161.5C 80.9912,150.637 64.1579,139.637 47.5,128.5 Z M 150.5,129.5 C 150.027,130.906 149.027,131.573 147.5,131.5C 147.973,130.094 148.973,129.427 150.5,129.5 Z"/></g>
<g><path style="opacity:0.644" fill="#000000" d="M 144.5,96.5 C 144.5,95.5 144.5,94.5 144.5,93.5C 145.833,93.5 147.167,93.5 148.5,93.5C 148.5,94.8333 148.5,96.1667 148.5,97.5C 147.041,97.5674 145.708,97.2341 144.5,96.5 Z"/></g>
</svg>
